<svg width="26" height="26" viewBox="0 0 26 26" fill="none" xmlns="http://www.w3.org/2000/svg">
<g id="broom" clip-path="url(#clip0_810_1019)">
<path id="Vector" d="M10.5184 11.4676L13.9062 15.7324C13.9062 15.7324 13.2578 19.7309 10.9152 21.5965C8.57266 23.4629 0.5 22.9293 0.5 22.9293C0.5 22.9293 0.648438 22.0254 0.929688 20.7641L4.62578 16.3824C4.78086 16.1988 4.5918 15.9285 4.36602 16.0113L2.00664 16.8742C2.5707 15.2469 3.28477 13.7477 4.13945 13.0668C6.48203 11.2012 10.5184 11.4676 10.5184 11.4676ZM25.3645 4.21211L24.5887 3.23555C24.3742 2.96602 23.9824 2.92109 23.7133 3.13555L14.632 10.0809L13.2984 8.40235C13.0996 8.15195 12.707 8.19883 12.5723 8.48867L11.5828 10.6195L14.9707 14.8844L17.2676 14.398C17.5801 14.332 17.7137 13.9605 17.5152 13.7105L16.1836 12.034L25.2648 5.08867C25.534 4.87461 25.5789 4.48203 25.3645 4.21211Z" fill="#BFBFBF"/>
</g>
<defs>
<clipPath id="clip0_810_1019">
<rect width="25" height="25" fill="white" transform="translate(0.5 0.5)"/>
</clipPath>
</defs>
</svg>
