<svg width="35" height="34" viewBox="0 0 35 34" fill="none" xmlns="http://www.w3.org/2000/svg">
<g id="Icon">
<g id="Union">
<path d="M17.3333 10.625C15.5728 10.625 14.1458 12.0521 14.1458 13.8125C14.1458 15.5729 15.5728 17 17.3333 17C19.0937 17 20.5208 15.5729 20.5208 13.8125C20.5208 12.0521 19.0937 10.625 17.3333 10.625Z" fill="#06CC02"/>
<path fill-rule="evenodd" clip-rule="evenodd" d="M2.45825 6.90625C2.45825 5.43924 3.6475 4.25 5.1145 4.25H29.552C31.019 4.25 32.2083 5.43924 32.2083 6.90625V20.7188C32.2083 22.1858 31.019 23.375 29.552 23.375H5.1145C3.64749 23.375 2.45825 22.1858 2.45825 20.7188V6.90625ZM12.0208 13.8125C12.0208 10.8785 14.3992 8.5 17.3333 8.5C20.2673 8.5 22.6458 10.8785 22.6458 13.8125C22.6458 16.7465 20.2673 19.125 17.3333 19.125C14.3992 19.125 12.0208 16.7465 12.0208 13.8125ZM26.8958 12.75C26.309 12.75 25.8333 13.2257 25.8333 13.8125V13.8231C25.8333 14.4099 26.309 14.8856 26.8958 14.8856H26.9064C27.4932 14.8856 27.9689 14.4099 27.9689 13.8231V13.8125C27.9689 13.2257 27.4932 12.75 26.9064 12.75H26.8958ZM6.70825 13.8125C6.70825 13.2257 7.18395 12.75 7.77075 12.75H7.78138C8.36818 12.75 8.84388 13.2257 8.84388 13.8125V13.8231C8.84388 14.4099 8.36818 14.8856 7.78138 14.8856H7.77075C7.18395 14.8856 6.70825 14.4099 6.70825 13.8231V13.8125Z" fill="#06CC02"/>
<path d="M3.52075 25.5C2.93395 25.5 2.45825 25.9757 2.45825 26.5625C2.45825 27.1493 2.93395 27.625 3.52075 27.625C11.1708 27.625 18.5802 28.6481 25.6204 30.5644C27.3071 31.0235 29.0208 29.7738 29.0208 27.9864V26.5625C29.0208 25.9757 28.5451 25.5 27.9583 25.5H3.52075Z" fill="#06CC02"/>
</g>
</g>
</svg>
