<svg width="31" height="30" viewBox="0 0 31 30" fill="none" xmlns="http://www.w3.org/2000/svg">
<g id="Icon">
<path id="Subtract" fill-rule="evenodd" clip-rule="evenodd" d="M15.5 2.8125C8.76903 2.8125 3.3125 8.26903 3.3125 15C3.3125 21.731 8.76903 27.1875 15.5 27.1875C22.231 27.1875 27.6875 21.731 27.6875 15C27.6875 8.26903 22.231 2.8125 15.5 2.8125ZM11.75 9.375C11.2322 9.375 10.8125 9.79473 10.8125 10.3125C10.8125 10.8303 11.2322 11.25 11.75 11.25H13.625C14.8496 11.25 15.8914 12.0326 16.2775 13.125H11.75C11.2322 13.125 10.8125 13.5447 10.8125 14.0625C10.8125 14.5803 11.2322 15 11.75 15H16.2775C15.8914 16.0924 14.8496 16.875 13.625 16.875H11.75C11.3708 16.875 11.029 17.1034 10.8839 17.4537C10.7388 17.8041 10.819 18.2073 11.0871 18.4754L14.8371 22.2254C15.2032 22.5915 15.7968 22.5915 16.1629 22.2254C16.529 21.8593 16.529 21.2657 16.1629 20.8996L13.9986 18.7353C16.0981 18.5698 17.8085 17.0209 18.2187 15H19.25C19.7678 15 20.1875 14.5803 20.1875 14.0625C20.1875 13.5447 19.7678 13.125 19.25 13.125H18.2187C18.0781 12.4323 17.7848 11.7951 17.3753 11.25H19.25C19.7678 11.25 20.1875 10.8303 20.1875 10.3125C20.1875 9.79473 19.7678 9.375 19.25 9.375H11.75Z" fill="#06CC02"/>
</g>
</svg>
