<svg width="20" height="20" viewBox="0 0 20 20" fill="none" xmlns="http://www.w3.org/2000/svg">
<path id="Vector" d="M19.6875 10.0823C19.6974 15.4198 15.3445 19.7843 10.007 19.788C7.70176 19.7897 5.58426 18.9861 3.92023 17.6431C3.48754 17.2939 3.4552 16.6454 3.8484 16.2522L4.28852 15.8121C4.6248 15.4758 5.16168 15.439 5.53426 15.7346C6.76023 16.7074 8.31176 17.2881 10 17.2881C13.9729 17.2881 17.1875 14.0728 17.1875 10.1006C17.1875 6.12773 13.9722 2.91309 10 2.91309C8.0932 2.91309 6.36137 3.65406 5.07547 4.86355L7.05805 6.84613C7.4518 7.23988 7.17293 7.91309 6.61613 7.91309H0.9375C0.592305 7.91309 0.3125 7.63328 0.3125 7.28809V1.60945C0.3125 1.05266 0.985703 0.773789 1.37945 1.1675L3.30805 3.09609C5.04723 1.43402 7.40438 0.413086 10 0.413086C15.3441 0.413086 19.6776 4.74043 19.6875 10.0823ZM12.6206 13.1598L13.0043 12.6664C13.3222 12.2577 13.2486 11.6687 12.8399 11.3508L11.25 10.1142V6.03809C11.25 5.52031 10.8303 5.10059 10.3125 5.10059H9.6875C9.16973 5.10059 8.75 5.52031 8.75 6.03809V11.337L11.305 13.3242C11.7137 13.6421 12.3027 13.5685 12.6206 13.1598Z" fill="white"/>
</svg>
