<svg width="35" height="34" viewBox="0 0 35 34" fill="none" xmlns="http://www.w3.org/2000/svg">
<g id="Icon">
<path id="Subtract" fill-rule="evenodd" clip-rule="evenodd" d="M3.6875 3.1875C3.1007 3.1875 2.625 3.6632 2.625 4.25C2.625 4.8368 3.1007 5.3125 3.6875 5.3125H4.75V20.1875C4.75 22.5347 6.65279 24.4375 9 24.4375H10.7134L9.05452 29.414C8.86896 29.9707 9.16982 30.5724 9.72651 30.758C10.2832 30.9435 10.8849 30.6427 11.0705 30.086L11.5366 28.6875H23.4634L23.9295 30.086C24.1151 30.6427 24.7168 30.9435 25.2735 30.758C25.8302 30.5724 26.131 29.9707 25.9455 29.414L24.2866 24.4375H26C28.3472 24.4375 30.25 22.5347 30.25 20.1875V5.3125H31.3125C31.8993 5.3125 32.375 4.8368 32.375 4.25C32.375 3.6632 31.8993 3.1875 31.3125 3.1875H3.6875ZM12.245 26.5625L12.9533 24.4375H22.0467L22.755 26.5625H12.245ZM22.8125 9.5625C22.8125 8.9757 22.3368 8.5 21.75 8.5C21.1632 8.5 20.6875 8.9757 20.6875 9.5625V18.0625C20.6875 18.6493 21.1632 19.125 21.75 19.125C22.3368 19.125 22.8125 18.6493 22.8125 18.0625V9.5625ZM18.5625 12.75C18.5625 12.1632 18.0868 11.6875 17.5 11.6875C16.9132 11.6875 16.4375 12.1632 16.4375 12.75V18.0625C16.4375 18.6493 16.9132 19.125 17.5 19.125C18.0868 19.125 18.5625 18.6493 18.5625 18.0625V12.75ZM14.3125 15.9375C14.3125 15.3507 13.8368 14.875 13.25 14.875C12.6632 14.875 12.1875 15.3507 12.1875 15.9375V18.0625C12.1875 18.6493 12.6632 19.125 13.25 19.125C13.8368 19.125 14.3125 18.6493 14.3125 18.0625V15.9375Z" fill="#06CC02"/>
</g>
</svg>
