<svg width="31" height="30" viewBox="0 0 31 30" fill="none" xmlns="http://www.w3.org/2000/svg">
<g id="Icon">
<g id="Union">
<path d="M15.0555 1.98706C15.333 1.83765 15.667 1.83765 15.9445 1.98706L28.132 8.54956C28.4356 8.71307 28.625 9.03011 28.625 9.375C28.625 9.71989 28.4356 10.0369 28.132 10.2004L15.9445 16.7629C15.667 16.9124 15.333 16.9124 15.0555 16.7629L2.86803 10.2004C2.56437 10.0369 2.375 9.71989 2.375 9.375C2.375 9.03011 2.56437 8.71307 2.86803 8.54956L15.0555 1.98706Z" fill="#06CC02"/>
<path d="M4.58085 13.2523L14.1666 18.4138C14.999 18.862 16.001 18.862 16.8334 18.4138L26.4191 13.2523L28.132 14.1745C28.4356 14.3381 28.625 14.6551 28.625 15C28.625 15.3449 28.4356 15.6619 28.132 15.8254L15.9445 22.3879C15.667 22.5373 15.333 22.5373 15.0555 22.3879L2.86803 15.8254C2.56437 15.6619 2.375 15.3449 2.375 15C2.375 14.6551 2.56437 14.3381 2.86803 14.1745L4.58085 13.2523Z" fill="#06CC02"/>
<path d="M14.1666 24.0388L4.58085 18.8773L2.86803 19.7995C2.56437 19.9631 2.375 20.2801 2.375 20.625C2.375 20.9699 2.56437 21.2869 2.86803 21.4504L15.0555 28.0129C15.333 28.1623 15.667 28.1623 15.9445 28.0129L28.132 21.4504C28.4356 21.2869 28.625 20.9699 28.625 20.625C28.625 20.2801 28.4356 19.9631 28.132 19.7995L26.4191 18.8773L16.8334 24.0388C16.001 24.487 14.999 24.487 14.1666 24.0388Z" fill="#06CC02"/>
</g>
</g>
</svg>
