<svg width="25" height="25" viewBox="0 0 25 25" fill="none" xmlns="http://www.w3.org/2000/svg">
<g id="icon/outline/question">
<path id="Vector" d="M10.1344 6.2657C11.3363 5.41143 13.2849 5.41143 14.4868 6.2657C15.6887 7.11998 15.6887 8.50502 14.4868 9.3593C14.2776 9.50798 14.0458 9.63079 13.7993 9.72772C13.0343 10.0285 12.3106 10.5596 12.3106 11.25V11.875M21.5432 10C21.5432 14.1421 17.4095 17.5 12.3104 17.5C7.21128 17.5 3.07764 14.1421 3.07764 10C3.07764 5.85786 7.21128 2.5 12.3104 2.5C17.4095 2.5 21.5432 5.85786 21.5432 10ZM12.3104 14.375H12.3181V14.3813H12.3104V14.375Z" stroke="#464444" stroke-width="1.5" stroke-linecap="round" stroke-linejoin="round"/>
</g>
</svg>
