<svg width="20" height="21" viewBox="0 0 20 21" fill="none" xmlns="http://www.w3.org/2000/svg">
<g id="sign-out-alt">
<path id="Vector" d="M19.4141 10.7645L12.8516 17.327C12.2656 17.9129 11.25 17.5028 11.25 16.6629V12.9129H5.9375C5.41797 12.9129 5 12.495 5 11.9754V8.22544C5 7.70591 5.41797 7.28794 5.9375 7.28794H11.25V3.53794C11.25 2.702 12.2617 2.28794 12.8516 2.87388L19.4141 9.43638C19.7773 9.80357 19.7773 10.3973 19.4141 10.7645ZM7.5 17.1317V15.5692C7.5 15.3114 7.28906 15.1004 7.03125 15.1004H3.75C3.05859 15.1004 2.5 14.5418 2.5 13.8504V6.35044C2.5 5.65903 3.05859 5.10044 3.75 5.10044H7.03125C7.28906 5.10044 7.5 4.8895 7.5 4.63169V3.06919C7.5 2.81138 7.28906 2.60044 7.03125 2.60044H3.75C1.67969 2.60044 0 4.28013 0 6.35044V13.8504C0 15.9208 1.67969 17.6004 3.75 17.6004H7.03125C7.28906 17.6004 7.5 17.3895 7.5 17.1317Z" fill="white"/>
</g>
</svg>
