<svg width="26" height="26" viewBox="0 0 26 26" fill="none" xmlns="http://www.w3.org/2000/svg">
<g id="wrench" clip-path="url(#clip0_830_1600)">
<path id="Vector" d="M25.2916 5.82708C25.1823 5.38616 24.6305 5.23674 24.3092 5.55803L20.6783 9.18889L17.3639 8.63665L16.8116 5.32219L20.4425 1.69133C20.7657 1.36809 20.61 0.817311 20.1661 0.706959C17.8527 0.133717 15.3053 0.751392 13.4972 2.55901C11.5616 4.49456 11.0289 7.30022 11.8346 9.74651L1.41516 20.1659C0.194946 21.3862 0.194946 23.3647 1.41516 24.5849C2.63538 25.8051 4.61389 25.8051 5.83411 24.5849L16.2448 14.1742C18.692 14.9902 21.4923 14.4516 23.4406 12.5033C25.2506 10.6933 25.8673 8.14202 25.2916 5.82708ZM3.62512 23.5468C2.97815 23.5468 2.45325 23.0219 2.45325 22.3749C2.45325 21.7275 2.97815 21.2031 3.62512 21.2031C4.27209 21.2031 4.797 21.7275 4.797 22.3749C4.797 23.0219 4.27209 23.5468 3.62512 23.5468Z" fill="#06CC02"/>
</g>
<defs>
<clipPath id="clip0_830_1600">
<rect width="25" height="25" fill="white" transform="translate(0.5 0.5)"/>
</clipPath>
</defs>
</svg>
