<svg width="30" height="30" viewBox="0 0 30 30" fill="none" xmlns="http://www.w3.org/2000/svg">
<g id="Icon">
<g id="Vector">
<path fill-rule="evenodd" clip-rule="evenodd" d="M11.25 5.625C11.6686 5.625 12.0364 5.90248 12.1514 6.30495L13.1679 9.86269C13.6128 11.4199 14.8301 12.6372 16.3873 13.0821L19.9451 14.0986C20.3475 14.2136 20.625 14.5814 20.625 15C20.625 15.4186 20.3475 15.7864 19.9451 15.9014L16.3873 16.9179C14.8301 17.3628 13.6128 18.5801 13.1679 20.1373L12.1514 23.6951C12.0364 24.0975 11.6686 24.375 11.25 24.375C10.8314 24.375 10.4636 24.0975 10.3486 23.6951L9.33207 20.1373C8.88715 18.5801 7.66991 17.3628 6.11268 16.9179L2.55495 15.9014C2.15248 15.7864 1.875 15.4186 1.875 15C1.875 14.5814 2.15248 14.2136 2.55495 14.0986L6.11269 13.0821C7.66991 12.6372 8.88715 11.4199 9.33208 9.86268L10.3486 6.30495C10.4636 5.90248 10.8314 5.625 11.25 5.625Z" fill="#06CC02"/>
<path fill-rule="evenodd" clip-rule="evenodd" d="M22.5 1.875C22.9302 1.875 23.3052 2.16778 23.4095 2.58512L23.7331 3.87945C24.027 5.05507 24.9449 5.973 26.1205 6.26691L27.4149 6.59049C27.8322 6.69483 28.125 7.06981 28.125 7.5C28.125 7.93019 27.8322 8.30517 27.4149 8.40951L26.1205 8.73309C24.9449 9.027 24.027 9.94493 23.7331 11.1205L23.4095 12.4149C23.3052 12.8322 22.9302 13.125 22.5 13.125C22.0698 13.125 21.6948 12.8322 21.5905 12.4149L21.2669 11.1206C20.973 9.94493 20.0551 9.027 18.8795 8.73309L17.5851 8.40951C17.1678 8.30517 16.875 7.93019 16.875 7.5C16.875 7.06981 17.1678 6.69483 17.5851 6.59049L18.8795 6.26691C20.0551 5.973 20.973 5.05507 21.2669 3.87945L21.5905 2.58512C21.6948 2.16778 22.0698 1.875 22.5 1.875Z" fill="#06CC02"/>
<path fill-rule="evenodd" clip-rule="evenodd" d="M20.625 18.75C21.0285 18.75 21.3868 19.0082 21.5144 19.391L22.0072 20.8695C22.1938 21.4293 22.6332 21.8687 23.1931 22.0553L24.6715 22.5481C25.0543 22.6757 25.3125 23.034 25.3125 23.4375C25.3125 23.841 25.0543 24.1993 24.6715 24.3269L23.1931 24.8197C22.6332 25.0063 22.1938 25.4457 22.0072 26.0056L21.5144 27.484C21.3868 27.8668 21.0285 28.125 20.625 28.125C20.2215 28.125 19.8632 27.8668 19.7356 27.484L19.2428 26.0056C19.0562 25.4457 18.6168 25.0063 18.057 24.8197L16.5785 24.3269C16.1957 24.1993 15.9375 23.841 15.9375 23.4375C15.9375 23.034 16.1957 22.6757 16.5785 22.5481L18.057 22.0553C18.6168 21.8687 19.0562 21.4293 19.2428 20.8695L19.7356 19.391C19.8632 19.0082 20.2215 18.75 20.625 18.75Z" fill="#06CC02"/>
</g>
</g>
</svg>
