<svg width="22" height="22" viewBox="0 0 22 22" fill="none" xmlns="http://www.w3.org/2000/svg">
<path id="Vector" fill-rule="evenodd" clip-rule="evenodd" d="M6.11111 5.16667C6.11111 3.92899 6.62619 2.742 7.54303 1.86683C8.45988 0.991665 9.70339 0.5 11 0.5C12.2966 0.5 13.5401 0.991665 14.457 1.86683C15.3738 2.742 15.8889 3.92899 15.8889 5.16667C15.8889 6.40434 15.3738 7.59133 14.457 8.4665C13.5401 9.34167 12.2966 9.83333 11 9.83333C9.70339 9.83333 8.45988 9.34167 7.54303 8.4665C6.62619 7.59133 6.11111 6.40434 6.11111 5.16667ZM6.11111 12.1667C4.49034 12.1667 2.93596 12.7812 1.7899 13.8752C0.643847 14.9692 0 16.4529 0 18C0 18.9283 0.386309 19.8185 1.07394 20.4749C1.76158 21.1313 2.69421 21.5 3.66667 21.5H18.3333C19.3058 21.5 20.2384 21.1313 20.9261 20.4749C21.6137 19.8185 22 18.9283 22 18C22 16.4529 21.3562 14.9692 20.2101 13.8752C19.064 12.7812 17.5097 12.1667 15.8889 12.1667H6.11111Z" fill="#BFBFBF"/>
</svg>
