<svg width="21" height="20" viewBox="0 0 21 20" fill="none" xmlns="http://www.w3.org/2000/svg">
<g id="Icon" clip-path="url(#clip0_779_5831)">
<path id="Vector" d="M19.0195 0H1.97656C1.16016 0 0.5 0.644531 0.5 1.44141V18.5547C0.5 19.3516 1.16016 20 1.97656 20H19.0195C19.8359 20 20.5 19.3516 20.5 18.5586V1.44141C20.5 0.644531 19.8359 0 19.0195 0ZM6.43359 17.043H3.46484V7.49609H6.43359V17.043ZM4.94922 6.19531C3.99609 6.19531 3.22656 5.42578 3.22656 4.47656C3.22656 3.52734 3.99609 2.75781 4.94922 2.75781C5.89844 2.75781 6.66797 3.52734 6.66797 4.47656C6.66797 5.42188 5.89844 6.19531 4.94922 6.19531ZM17.543 17.043H14.5781V12.4023C14.5781 11.2969 14.5586 9.87109 13.0352 9.87109C11.4922 9.87109 11.2578 11.0781 11.2578 12.3242V17.043H8.29688V7.49609H11.1406V8.80078H11.1797C11.5742 8.05078 12.543 7.25781 13.9844 7.25781C16.9883 7.25781 17.543 9.23438 17.543 11.8047V17.043Z" fill="#262626"/>
</g>
<defs>
<clipPath id="clip0_779_5831">
<rect width="20" height="20" fill="white" transform="translate(0.5)"/>
</clipPath>
</defs>
</svg>
