<svg width="21" height="20" viewBox="0 0 21 20" fill="none" xmlns="http://www.w3.org/2000/svg">
<g id="Icon" clip-path="url(#clip0_779_5828)">
<path id="Vector" d="M6.7918 18.1246C14.3371 18.1246 18.4652 11.8719 18.4652 6.45118C18.4652 6.2754 18.4613 6.09572 18.4535 5.91993C19.2566 5.33918 19.9496 4.61985 20.5 3.79572C19.7521 4.12847 18.958 4.34579 18.1449 4.44025C19.0011 3.92706 19.6421 3.12086 19.9492 2.17111C19.1438 2.64843 18.263 2.98514 17.3445 3.16681C16.7257 2.50927 15.9075 2.0739 15.0164 1.92801C14.1253 1.78212 13.211 1.93384 12.4148 2.35971C11.6186 2.78559 10.9848 3.46189 10.6115 4.28406C10.2382 5.10623 10.1462 6.02848 10.3496 6.90822C8.71874 6.82638 7.12328 6.40272 5.66665 5.66472C4.21002 4.92671 2.92474 3.89083 1.89414 2.62423C1.37033 3.52734 1.21005 4.596 1.44586 5.61304C1.68167 6.63008 2.29589 7.51917 3.16367 8.09962C2.51219 8.07894 1.87498 7.90353 1.30469 7.5879V7.63868C1.3041 8.58643 1.63175 9.50512 2.23192 10.2386C2.8321 10.9721 3.66777 11.4751 4.59687 11.6621C3.99338 11.8272 3.35999 11.8513 2.7457 11.7324C3.00788 12.5475 3.51798 13.2604 4.20481 13.7716C4.89164 14.2828 5.72093 14.5668 6.57695 14.584C5.12369 15.7256 3.32848 16.3447 1.48047 16.3418C1.15274 16.3413 0.825333 16.3212 0.5 16.2817C2.37738 17.4861 4.56128 18.1258 6.7918 18.1246Z" fill="#262626"/>
</g>
<defs>
<clipPath id="clip0_779_5828">
<rect width="20" height="20" fill="white" transform="translate(0.5)"/>
</clipPath>
</defs>
</svg>
