<svg width="31" height="33" viewBox="0 0 31 33" fill="none" xmlns="http://www.w3.org/2000/svg">
<g id="iconamoon:profile-light">
<g id="Group">
<path id="Vector" d="M5.33301 24.5369C5.33301 23.0908 5.85979 21.7039 6.79747 20.6813C7.73516 19.6587 9.00693 19.0842 10.333 19.0842H20.333C21.6591 19.0842 22.9309 19.6587 23.8685 20.6813C24.8062 21.7039 25.333 23.0908 25.333 24.5369C25.333 25.26 25.0696 25.9534 24.6008 26.4647C24.1319 26.976 23.496 27.2632 22.833 27.2632H7.83301C7.16997 27.2632 6.53408 26.976 6.06524 26.4647C5.5964 25.9534 5.33301 25.26 5.33301 24.5369Z" stroke="#06CC02" stroke-width="2" stroke-linejoin="round"/>
<path id="Vector_2" d="M15.333 13.6316C17.4041 13.6316 19.083 11.8007 19.083 9.54214C19.083 7.28357 17.4041 5.45264 15.333 5.45264C13.2619 5.45264 11.583 7.28357 11.583 9.54214C11.583 11.8007 13.2619 13.6316 15.333 13.6316Z" stroke="#06CC02" stroke-width="2"/>
</g>
</g>
</svg>
