<svg width="31" height="34" viewBox="0 0 31 34" fill="none" xmlns="http://www.w3.org/2000/svg">
<g id="ic:sharp-people-outline">
<path id="Vector" d="M11.666 16.7902C14.0785 16.7902 16.041 14.6501 16.041 12.0191C16.041 9.38822 14.0785 7.24805 11.666 7.24805C9.25352 7.24805 7.29102 9.38822 7.29102 12.0191C7.29102 14.6501 9.25352 16.7902 11.666 16.7902ZM11.666 9.97438C12.7035 9.97438 13.541 10.8877 13.541 12.0191C13.541 13.1506 12.7035 14.0639 11.666 14.0639C10.6285 14.0639 9.79102 13.1506 9.79102 12.0191C9.79102 10.8877 10.6285 9.97438 11.666 9.97438ZM11.666 19.1758C8.74102 19.1758 2.91602 20.7707 2.91602 23.9469V26.3324H20.416V23.9469C20.416 20.7707 14.591 19.1758 11.666 19.1758ZM5.84102 23.6061C6.89102 22.8154 9.42852 21.9021 11.666 21.9021C13.9035 21.9021 16.441 22.8154 17.491 23.6061H5.84102ZM20.466 19.2576C21.916 20.4026 22.916 21.9294 22.916 23.9469V26.3324H27.916V23.9469C27.916 21.1933 23.541 19.6256 20.466 19.2576ZM19.166 16.7902C21.5785 16.7902 23.541 14.6501 23.541 12.0191C23.541 9.38822 21.5785 7.24805 19.166 7.24805C18.491 7.24805 17.866 7.42526 17.291 7.72516C18.0785 8.93838 18.541 10.4242 18.541 12.0191C18.541 13.614 18.0785 15.0999 17.291 16.3131C17.866 16.613 18.491 16.7902 19.166 16.7902Z" fill="#06CC02"/>
</g>
</svg>
