<svg width="21" height="20" viewBox="0 0 21 20" fill="none" xmlns="http://www.w3.org/2000/svg">
<g id="Icon" clip-path="url(#clip0_779_5825)">
<path id="Vector" d="M20.5 10C20.5 4.47715 16.0229 0 10.5 0C4.97715 0 0.5 4.47715 0.5 10C0.5 14.9912 4.15684 19.1283 8.9375 19.8785V12.8906H6.39844V10H8.9375V7.79688C8.9375 5.29063 10.4305 3.90625 12.7146 3.90625C13.8084 3.90625 14.9531 4.10156 14.9531 4.10156V6.5625H13.6922C12.45 6.5625 12.0625 7.3334 12.0625 8.125V10H14.8359L14.3926 12.8906H12.0625V19.8785C16.8432 19.1283 20.5 14.9912 20.5 10Z" fill="#262626"/>
</g>
<defs>
<clipPath id="clip0_779_5825">
<rect width="20" height="20" fill="white" transform="translate(0.5)"/>
</clipPath>
</defs>
</svg>
