<svg width="30" height="33" viewBox="0 0 30 33" fill="none" xmlns="http://www.w3.org/2000/svg">
<g id="mdi:question-mark-circle-outline">
<path id="Vector" d="M13.75 24.537H16.25V21.8107H13.75V24.537ZM15 2.72632C13.3585 2.72632 11.733 3.07891 10.2165 3.76397C8.69989 4.44903 7.3219 5.45313 6.16117 6.71895C3.81696 9.27538 2.5 12.7427 2.5 16.358C2.5 19.9734 3.81696 23.4406 6.16117 25.9971C7.3219 27.2629 8.69989 28.267 10.2165 28.952C11.733 29.6371 13.3585 29.9897 15 29.9897C18.3152 29.9897 21.4946 28.5535 23.8388 25.9971C26.183 23.4406 27.5 19.9734 27.5 16.358C27.5 14.5679 27.1767 12.7953 26.5485 11.1414C25.9203 9.48751 24.9996 7.98477 23.8388 6.71895C22.6781 5.45313 21.3001 4.44903 19.7835 3.76397C18.267 3.07891 16.6415 2.72632 15 2.72632ZM15 27.2634C9.4875 27.2634 5 22.3696 5 16.358C5 10.3464 9.4875 5.45266 15 5.45266C20.5125 5.45266 25 10.3464 25 16.358C25 22.3696 20.5125 27.2634 15 27.2634ZM15 8.17899C13.6739 8.17899 12.4021 8.75347 11.4645 9.77604C10.5268 10.7986 10 12.1855 10 13.6317H12.5C12.5 12.9086 12.7634 12.2151 13.2322 11.7039C13.7011 11.1926 14.337 10.9053 15 10.9053C15.663 10.9053 16.2989 11.1926 16.7678 11.7039C17.2366 12.2151 17.5 12.9086 17.5 13.6317C17.5 16.358 13.75 16.0172 13.75 20.4475H16.25C16.25 17.3804 20 17.0396 20 13.6317C20 12.1855 19.4732 10.7986 18.5355 9.77604C17.5979 8.75347 16.3261 8.17899 15 8.17899Z" fill="#06CC02"/>
</g>
</svg>
