<svg width="30" height="34" viewBox="0 0 30 34" fill="none" xmlns="http://www.w3.org/2000/svg">
<g id="tabler:circle-letter-i">
<path id="Vector" d="M15 11.6215V22.5269M3.75 17.0742C3.75 18.6853 4.04099 20.2807 4.60636 21.7691C5.17172 23.2576 6.00039 24.6101 7.04505 25.7493C8.08971 26.8886 9.3299 27.7923 10.6948 28.4088C12.0597 29.0254 13.5226 29.3427 15 29.3427C16.4774 29.3427 17.9403 29.0254 19.3052 28.4088C20.6701 27.7923 21.9103 26.8886 22.955 25.7493C23.9996 24.6101 24.8283 23.2576 25.3936 21.7691C25.959 20.2807 26.25 18.6853 26.25 17.0742C26.25 15.4631 25.959 13.8677 25.3936 12.3792C24.8283 10.8907 23.9996 9.53827 22.955 8.39903C21.9103 7.25979 20.6701 6.3561 19.3052 5.73955C17.9403 5.123 16.4774 4.80566 15 4.80566C13.5226 4.80566 12.0597 5.123 10.6948 5.73955C9.3299 6.3561 8.08971 7.25979 7.04505 8.39903C6.00039 9.53827 5.17172 10.8907 4.60636 12.3792C4.04099 13.8677 3.75 15.4631 3.75 17.0742Z" stroke="#06CC02" stroke-width="2.66667" stroke-linecap="round" stroke-linejoin="round"/>
</g>
</svg>
