<svg width="35" height="34" viewBox="0 0 35 34" fill="none" xmlns="http://www.w3.org/2000/svg">
<g id="accusoft" clip-path="url(#clip0_856_3197)">
<path id="Vector" d="M17.9447 16.7876V16.7345L15.2247 13.2389C15.2247 13.2389 14.5872 13.3239 13.8966 14.0411C13.4185 14.5351 1.03503 26.7432 0.96597 26.8389C0.594095 27.3701 1.05097 27.2001 1.80003 26.9292C1.84253 26.9292 7.88284 24.9848 7.88284 24.9848C7.90941 24.9529 7.87753 24.9795 7.91472 24.9529C7.89347 24.682 7.87222 23.5611 7.86159 23.4814C7.82972 23.2051 7.97847 23.1148 8.23347 23.0086L13.1528 21.2129C13.1847 21.1704 17.8544 16.8726 17.9447 16.7876ZM26.45 23.1679C27.1566 24.0232 27.5497 23.8745 28.0863 23.662C28.2563 23.5982 34.2169 21.1332 34.3444 21.0642C34.7694 20.8357 34.2541 20.177 33.9619 19.8211C33.8503 19.6882 23.066 6.77355 22.9544 6.63012C22.4391 5.98199 22.1947 5.9448 20.9144 5.95012C20.3725 5.95012 15.2407 5.97668 14.7253 5.98199C13.7053 5.9873 12.9775 5.96605 13.7053 6.8798C14.1144 7.38449 26.1472 22.8014 26.45 23.1679ZM34.5622 23.2529C34.44 23.237 33.2553 23.0032 32.5435 22.8704C32.5435 22.8704 26.4341 25.5479 26.3013 25.6117C25.4513 25.9995 24.8722 25.4417 24.3516 24.8361L21.3182 20.9048C21.0313 20.857 18.1094 20.3948 17.8491 20.4107C17.6844 20.4214 17.3391 20.4532 17.0841 20.5648C16.8238 20.6764 9.37034 23.3698 9.10472 23.4707C8.83378 23.577 8.49909 23.662 8.51503 23.8745C8.52566 24.0073 8.62128 24.0126 8.75941 24.0604C8.90284 24.1029 24.7447 27.6517 25.1219 27.7314C25.9507 27.9067 27.1672 28.2892 27.9694 27.8217C28.081 27.7579 34.5463 23.7629 34.6525 23.6886C34.9394 23.4761 34.881 23.3273 34.5622 23.2529Z" fill="#06CC02"/>
</g>
<defs>
<clipPath id="clip0_856_3197">
<rect width="34" height="34" fill="white" transform="translate(0.833008)"/>
</clipPath>
</defs>
</svg>
