<svg width="25" height="25" viewBox="0 0 25 25" fill="none" xmlns="http://www.w3.org/2000/svg">
<g id="Icon">
<path id="Vector (Stroke)" fill-rule="evenodd" clip-rule="evenodd" d="M3.125 7.03125C3.125 6.59978 3.47478 6.25 3.90625 6.25H21.0938C21.5252 6.25 21.875 6.59978 21.875 7.03125C21.875 7.46272 21.5252 7.8125 21.0938 7.8125H3.90625C3.47478 7.8125 3.125 7.46272 3.125 7.03125ZM3.125 12.5C3.125 12.0685 3.47478 11.7188 3.90625 11.7188H21.0938C21.5252 11.7188 21.875 12.0685 21.875 12.5C21.875 12.9315 21.5252 13.2812 21.0938 13.2812H3.90625C3.47478 13.2812 3.125 12.9315 3.125 12.5ZM11.7188 17.9688C11.7188 17.5373 12.0685 17.1875 12.5 17.1875H21.0938C21.5252 17.1875 21.875 17.5373 21.875 17.9688C21.875 18.4002 21.5252 18.75 21.0938 18.75H12.5C12.0685 18.75 11.7188 18.4002 11.7188 17.9688Z" fill="white"/>
</g>
</svg>
