<svg width="20" height="21" viewBox="0 0 20 21" fill="none" xmlns="http://www.w3.org/2000/svg">
<g id="eye">
<g id="Union">
<path d="M10 13C11.3807 13 12.5 11.8807 12.5 10.5C12.5 9.11929 11.3807 8 10 8C8.61929 8 7.5 9.11929 7.5 10.5C7.5 11.8807 8.61929 13 10 13Z" fill="#464444"/>
<path fill-rule="evenodd" clip-rule="evenodd" d="M1.10284 10.0389C2.34222 6.31309 5.85659 3.625 10.0004 3.625C14.1423 3.625 17.6554 6.3106 18.8963 10.0337C18.9966 10.3346 18.9967 10.6601 18.8966 10.9611C17.6572 14.6869 14.1428 17.375 9.99897 17.375C5.85706 17.375 2.34403 14.6894 1.10312 10.9663C1.00283 10.6654 1.00274 10.3399 1.10284 10.0389ZM14.375 10.5C14.375 12.9162 12.4162 14.875 10 14.875C7.58375 14.875 5.625 12.9162 5.625 10.5C5.625 8.08375 7.58375 6.125 10 6.125C12.4162 6.125 14.375 8.08375 14.375 10.5Z" fill="#464444"/>
</g>
</g>
</svg>
