<svg width="31" height="34" viewBox="0 0 31 34" fill="none" xmlns="http://www.w3.org/2000/svg">
<g id="material-symbols:privacy-tip-outline">
<path id="Vector" d="M14.083 23.8899H16.583V15.7109H14.083V23.8899ZM15.333 12.9846C15.6872 12.9846 15.9843 12.8537 16.2243 12.592C16.4643 12.3302 16.5838 12.0067 16.583 11.6214C16.583 11.2352 16.463 10.9112 16.223 10.6495C15.983 10.3877 15.6863 10.2573 15.333 10.2582C14.9788 10.2582 14.6818 10.3891 14.4418 10.6508C14.2018 10.9125 14.0822 11.2361 14.083 11.6214C14.083 12.0076 14.203 12.3316 14.443 12.5933C14.683 12.8551 14.9797 12.9855 15.333 12.9846ZM15.333 30.7058C12.4372 29.9106 10.0463 28.0985 8.16051 25.2694C6.27468 22.4404 5.33218 19.2997 5.33301 15.8472V7.53189L15.333 3.44238L25.333 7.53189V15.8472C25.333 19.3006 24.3901 22.4418 22.5043 25.2708C20.6184 28.0998 18.228 29.9115 15.333 30.7058ZM15.333 27.8431C17.4997 27.0934 19.2913 25.5939 20.708 23.3446C22.1247 21.0954 22.833 18.5963 22.833 15.8472V9.40625L15.333 6.33912L7.83301 9.40625V15.8472C7.83301 18.5963 8.54134 21.0954 9.95801 23.3446C11.3747 25.5939 13.1663 27.0934 15.333 27.8431Z" fill="#06CC02"/>
</g>
</svg>
