<svg width="30" height="30" viewBox="0 0 30 30" fill="none" xmlns="http://www.w3.org/2000/svg">
<g id="Icon">
<g id="Union">
<path d="M7.5 3.75C5.42893 3.75 3.75 5.42893 3.75 7.5V10.3125C3.75 12.3836 5.42893 14.0625 7.5 14.0625H10.3125C12.3836 14.0625 14.0625 12.3836 14.0625 10.3125V7.5C14.0625 5.42893 12.3836 3.75 10.3125 3.75H7.5Z" fill="#06CC02"/>
<path d="M19.6875 3.75C17.6164 3.75 15.9375 5.42893 15.9375 7.5V10.3125C15.9375 12.3836 17.6164 14.0625 19.6875 14.0625H22.5C24.5711 14.0625 26.25 12.3836 26.25 10.3125V7.5C26.25 5.42893 24.5711 3.75 22.5 3.75H19.6875Z" fill="#06CC02"/>
<path d="M7.5 15.9375C5.42893 15.9375 3.75 17.6164 3.75 19.6875V22.5C3.75 24.5711 5.42893 26.25 7.5 26.25H10.3125C12.3836 26.25 14.0625 24.5711 14.0625 22.5V19.6875C14.0625 17.6164 12.3836 15.9375 10.3125 15.9375H7.5Z" fill="#06CC02"/>
<path d="M22.0312 16.875C22.0312 16.3572 21.6115 15.9375 21.0938 15.9375C20.576 15.9375 20.1562 16.3572 20.1562 16.875V20.1562H16.875C16.3572 20.1562 15.9375 20.576 15.9375 21.0938C15.9375 21.6115 16.3572 22.0312 16.875 22.0312H20.1562V25.3125C20.1562 25.8303 20.576 26.25 21.0938 26.25C21.6115 26.25 22.0312 25.8303 22.0312 25.3125V22.0312H25.3125C25.8303 22.0312 26.25 21.6115 26.25 21.0938C26.25 20.576 25.8303 20.1562 25.3125 20.1562H22.0312V16.875Z" fill="#06CC02"/>
</g>
</g>
</svg>
