<svg width="26" height="26" viewBox="0 0 26 26" fill="none" xmlns="http://www.w3.org/2000/svg">
<g id="broom" clip-path="url(#clip0_830_1457)">
<path id="Vector" d="M10.5184 11.9378L13.9062 16.2026C13.9062 16.2026 13.2578 20.2011 10.9152 22.0667C8.57266 23.9331 0.5 23.3995 0.5 23.3995C0.5 23.3995 0.648438 22.4956 0.929688 21.2343L4.62578 16.8526C4.78086 16.669 4.5918 16.3987 4.36602 16.4815L2.00664 17.3444C2.5707 15.7171 3.28477 14.2179 4.13945 13.537C6.48203 11.6714 10.5184 11.9378 10.5184 11.9378ZM25.3645 4.68233L24.5887 3.70576C24.3742 3.43623 23.9824 3.39131 23.7133 3.60576L14.632 10.5511L13.2984 8.87256C13.0996 8.62217 12.707 8.66904 12.5723 8.95889L11.5828 11.0897L14.9707 15.3546L17.2676 14.8683C17.5801 14.8022 17.7137 14.4308 17.5152 14.1808L16.1836 12.5042L25.2648 5.55889C25.534 5.34483 25.5789 4.95225 25.3645 4.68233Z" fill="black"/>
</g>
<defs>
<clipPath id="clip0_830_1457">
<rect width="25" height="25" fill="white" transform="translate(0.5 0.970215)"/>
</clipPath>
</defs>
</svg>
