<svg width="30" height="30" viewBox="0 0 30 30" fill="none" xmlns="http://www.w3.org/2000/svg">
<g id="Icon" clip-path="url(#clip0_779_6603)">
<path id="Vector" d="M29.7076 15.3456C29.7076 14.3259 29.6249 13.3007 29.4485 12.2976H15.3V18.0738H23.4022C23.066 19.9368 21.9857 21.5848 20.4039 22.632V26.3799H25.2376C28.0761 23.7674 29.7076 19.9092 29.7076 15.3456Z" fill="#06CC02"/>
<path id="Vector_2" d="M15.2999 30.0012C19.3454 30.0012 22.7572 28.6728 25.2429 26.38L20.4092 22.6321C19.0644 23.547 17.3282 24.0651 15.3054 24.0651C11.3921 24.0651 8.07409 21.425 6.88357 17.8755H1.89551V21.7392C4.4419 26.8044 9.62838 30.0012 15.2999 30.0012Z" fill="#06CC02"/>
<path id="Vector_3" d="M6.87822 17.8754C6.24989 16.0124 6.24989 13.9952 6.87822 12.1322V8.26855H1.89568C-0.231827 12.507 -0.231827 17.5006 1.89568 21.7391L6.87822 17.8754Z" fill="#06CC02"/>
<path id="Vector_4" d="M15.2999 5.93708C17.4384 5.90401 19.5053 6.70871 21.0541 8.18583L25.3366 3.90327C22.6249 1.35688 19.0258 -0.0430825 15.2999 0.00101083C9.62838 0.00101083 4.4419 3.19778 1.89551 8.26851L6.87805 12.1322C8.06306 8.57716 11.3866 5.93708 15.2999 5.93708Z" fill="#06CC02"/>
</g>
<defs>
<clipPath id="clip0_779_6603">
<rect width="30" height="30" fill="white"/>
</clipPath>
</defs>
</svg>
