<svg width="40" height="40" viewBox="0 0 40 40" fill="none" xmlns="http://www.w3.org/2000/svg">
<g id="solar:camera-minimalistic-bold">
<path id="Vector" fill-rule="evenodd" clip-rule="evenodd" d="M13.334 6.66667C13.334 5.74667 14.0223 5 14.8723 5H25.129C25.979 5 26.6673 5.74667 26.6673 6.66667C26.6673 7.58667 25.979 8.33333 25.129 8.33333H14.8723C14.0223 8.33333 13.334 7.58667 13.334 6.66667ZM16.2973 35H23.704C28.9057 35 31.5073 35 33.3757 33.7967C34.1795 33.2798 34.8738 32.6099 35.419 31.825C36.6673 30.025 36.6673 27.5167 36.6673 22.5C36.6673 17.4833 36.6673 14.9767 35.4173 13.175C34.8727 12.3902 34.179 11.7202 33.3757 11.2033C31.5073 10 28.9057 10 23.704 10H16.2973C11.0957 10 8.49398 10 6.62565 11.2033C5.82236 11.7203 5.12862 12.3902 4.58398 13.175C3.33398 14.975 3.33398 17.4833 3.33398 22.4967V22.5C3.33398 27.5167 3.33398 30.0233 4.58232 31.825C5.12232 32.605 5.81565 33.275 6.62565 33.7967C8.49398 35 11.0957 35 16.2973 35ZM13.0557 22.5C13.0557 18.8 16.1657 15.8033 20.0007 15.8033C23.8357 15.8033 26.9457 18.8017 26.9457 22.5C26.9457 26.1983 23.834 29.1967 20.0007 29.1967C16.1657 29.1967 13.0557 26.1967 13.0557 22.5ZM15.834 22.5C15.834 20.28 17.7007 18.4833 20.0007 18.4833C22.3007 18.4833 24.1673 20.2817 24.1673 22.5C24.1673 24.7183 22.3007 26.5167 20.0007 26.5167C17.7007 26.5167 15.834 24.7183 15.834 22.5ZM30.1857 15.8033C29.419 15.8033 28.7973 16.4033 28.7973 17.1433C28.7973 17.8817 29.419 18.4817 30.1857 18.4817H31.1123C31.879 18.4817 32.5007 17.8817 32.5007 17.1433C32.5007 16.4033 31.879 15.8033 31.1123 15.8033H30.1857Z" fill="#BFBFBF"/>
</g>
</svg>
