<svg width="30" height="30" viewBox="0 0 30 30" fill="none" xmlns="http://www.w3.org/2000/svg">
<g id="close">
<path id="Vector" d="M15 0C6.71652 0 0 6.71652 0 15C0 23.2835 6.71652 30 15 30C23.2835 30 30 23.2835 30 15C30 6.71652 23.2835 0 15 0ZM22.2522 20.0558C22.3527 20.1563 22.4063 20.2902 22.4063 20.4308C22.4063 20.5714 22.3527 20.7121 22.2522 20.8058L20.8058 22.2589C20.6987 22.3661 20.5647 22.4129 20.4308 22.4129C20.2969 22.4129 20.1563 22.3594 20.0558 22.2589L15 17.1964L9.95089 22.2656C9.85045 22.3728 9.70982 22.4196 9.57589 22.4196C9.44196 22.4196 9.30134 22.3661 9.20089 22.2656L7.75446 20.8125C7.65402 20.7121 7.60045 20.5781 7.60045 20.4375C7.60045 20.2969 7.65402 20.1563 7.75446 20.0625L12.8237 14.9732L7.74107 9.95089C7.53348 9.7433 7.53348 9.40179 7.74107 9.1942L9.1875 7.74107C9.28795 7.64063 9.42188 7.58705 9.5625 7.58705C9.70313 7.58705 9.83705 7.64063 9.9375 7.74107L15.0067 12.7433L20.0759 7.74107C20.1763 7.64063 20.3103 7.58705 20.4509 7.58705C20.5915 7.58705 20.7254 7.64063 20.8259 7.74107L22.2723 9.1942C22.4799 9.40179 22.4799 9.7433 22.2723 9.95089L17.1897 14.9732L22.2522 20.0558Z" fill="#06CC02"/>
</g>
</svg>
