<svg width="35" height="34" viewBox="0 0 35 34" fill="none" xmlns="http://www.w3.org/2000/svg">
<g id="compact-disc" clip-path="url(#clip0_856_3242)">
<path id="Vector" d="M17.166 0.53125C8.06836 0.53125 0.697266 7.90234 0.697266 17C0.697266 26.0977 8.06836 33.4688 17.166 33.4688C26.2637 33.4688 33.6348 26.0977 33.6348 17C33.6348 7.90234 26.2637 0.53125 17.166 0.53125ZM6.54102 17H4.41602C4.41602 9.96758 10.1336 4.25 17.166 4.25V6.375C11.309 6.375 6.54102 11.143 6.54102 17ZM17.166 23.375C13.6465 23.375 10.791 20.5195 10.791 17C10.791 13.4805 13.6465 10.625 17.166 10.625C20.6855 10.625 23.541 13.4805 23.541 17C23.541 20.5195 20.6855 23.375 17.166 23.375ZM17.166 14.875C15.9906 14.875 15.041 15.8246 15.041 17C15.041 18.1754 15.9906 19.125 17.166 19.125C18.3414 19.125 19.291 18.1754 19.291 17C19.291 15.8246 18.3414 14.875 17.166 14.875Z" fill="#06CC02"/>
</g>
<defs>
<clipPath id="clip0_856_3242">
<rect width="34" height="34" fill="white" transform="translate(0.166016)"/>
</clipPath>
</defs>
</svg>
