<svg width="16" height="19" viewBox="0 0 16 19" fill="none" xmlns="http://www.w3.org/2000/svg">
<g id="trash-can-regular 1" clip-path="url(#clip0_969_3037)">
<path id="Vector" d="M6.08929 2.04281L5.41071 3.05709H10.5893L9.91071 2.04281C9.85714 1.96424 9.76786 1.91424 9.67143 1.91424H6.325C6.22857 1.91424 6.13929 1.96067 6.08571 2.04281H6.08929ZM11.3393 1.09281L12.65 3.05709H13.1429H14.8571H15.1429C15.6179 3.05709 16 3.43924 16 3.91424C16 4.38924 15.6179 4.77138 15.1429 4.77138H14.8571V15.6285C14.8571 17.2071 13.5786 18.4857 12 18.4857H4C2.42143 18.4857 1.14286 17.2071 1.14286 15.6285V4.77138H0.857143C0.382143 4.77138 0 4.38924 0 3.91424C0 3.43924 0.382143 3.05709 0.857143 3.05709H1.14286H2.85714H3.35L4.66071 1.08924C5.03214 0.535665 5.65714 0.199951 6.325 0.199951H9.67143C10.3393 0.199951 10.9643 0.535665 11.3357 1.08924L11.3393 1.09281ZM2.85714 4.77138V15.6285C2.85714 16.2607 3.36786 16.7714 4 16.7714H12C12.6321 16.7714 13.1429 16.2607 13.1429 15.6285V4.77138H2.85714ZM5.71429 7.05709V14.4857C5.71429 14.8 5.45714 15.0571 5.14286 15.0571C4.82857 15.0571 4.57143 14.8 4.57143 14.4857V7.05709C4.57143 6.74281 4.82857 6.48567 5.14286 6.48567C5.45714 6.48567 5.71429 6.74281 5.71429 7.05709ZM8.57143 7.05709V14.4857C8.57143 14.8 8.31429 15.0571 8 15.0571C7.68571 15.0571 7.42857 14.8 7.42857 14.4857V7.05709C7.42857 6.74281 7.68571 6.48567 8 6.48567C8.31429 6.48567 8.57143 6.74281 8.57143 7.05709ZM11.4286 7.05709V14.4857C11.4286 14.8 11.1714 15.0571 10.8571 15.0571C10.5429 15.0571 10.2857 14.8 10.2857 14.4857V7.05709C10.2857 6.74281 10.5429 6.48567 10.8571 6.48567C11.1714 6.48567 11.4286 6.74281 11.4286 7.05709Z" fill="white"/>
</g>
<defs>
<clipPath id="clip0_969_3037">
<rect width="16" height="18.2857" fill="white" transform="translate(0 0.199951)"/>
</clipPath>
</defs>
</svg>
