<svg width="50" height="50" viewBox="0 0 50 50" fill="none" xmlns="http://www.w3.org/2000/svg">
<g id="file-csv-solid 1" clip-path="url(#clip0_1383_783)">
<path id="Vector" d="M0 6.25C0 2.80273 2.80273 0 6.25 0H21.875V12.5C21.875 14.2285 23.2715 15.625 25 15.625H37.5V29.6875H17.1875C13.7402 29.6875 10.9375 32.4902 10.9375 35.9375V50H6.25C2.80273 50 0 47.1973 0 43.75V6.25ZM37.5 12.5H25V0L37.5 12.5ZM19.5312 34.375H21.0938C23.252 34.375 25 36.123 25 38.2812V39.0625C25 39.9219 24.2969 40.625 23.4375 40.625C22.5781 40.625 21.875 39.9219 21.875 39.0625V38.2812C21.875 37.8516 21.5234 37.5 21.0938 37.5H19.5312C19.1016 37.5 18.75 37.8516 18.75 38.2812V46.0938C18.75 46.5234 19.1016 46.875 19.5312 46.875H21.0938C21.5234 46.875 21.875 46.5234 21.875 46.0938V45.3125C21.875 44.4531 22.5781 43.75 23.4375 43.75C24.2969 43.75 25 44.4531 25 45.3125V46.0938C25 48.252 23.252 50 21.0938 50H19.5312C17.373 50 15.625 48.252 15.625 46.0938V38.2812C15.625 36.123 17.373 34.375 19.5312 34.375ZM32.5293 34.375H35.9375C36.7969 34.375 37.5 35.0781 37.5 35.9375C37.5 36.7969 36.7969 37.5 35.9375 37.5H32.5293C31.8262 37.5 31.25 38.0762 31.25 38.7793C31.25 39.2871 31.543 39.7461 32.0117 39.9512L35.6641 41.5723C37.2559 42.2754 38.2812 43.8574 38.2812 45.5957C38.2812 48.0273 36.3086 50 33.877 50H29.6875C28.8281 50 28.125 49.2969 28.125 48.4375C28.125 47.5781 28.8281 46.875 29.6875 46.875H33.877C34.5801 46.875 35.1562 46.2988 35.1562 45.5957C35.1562 45.0879 34.8633 44.6289 34.3945 44.4238L30.7422 42.8027C29.1504 42.0996 28.125 40.5176 28.125 38.7793C28.125 36.3477 30.0977 34.375 32.5293 34.375ZM42.1875 34.375C43.0469 34.375 43.75 35.0781 43.75 35.9375V39.0234C43.75 41.2695 44.2871 43.4766 45.3125 45.4688C46.3379 43.4863 46.875 41.2793 46.875 39.0234V35.9375C46.875 35.0781 47.5781 34.375 48.4375 34.375C49.2969 34.375 50 35.0781 50 35.9375V39.0234C50 42.4121 48.9941 45.7324 47.1094 48.5547L46.6113 49.3066C46.3184 49.7461 45.8301 50 45.3125 50C44.7949 50 44.3066 49.7363 44.0137 49.3066L43.5156 48.5547C41.6309 45.7324 40.625 42.4121 40.625 39.0234V35.9375C40.625 35.0781 41.3281 34.375 42.1875 34.375Z" fill="#1A1A1A"/>
</g>
<defs>
<clipPath id="clip0_1383_783">
<rect width="50" height="50" fill="white"/>
</clipPath>
</defs>
</svg>
