<svg width="50" height="50" viewBox="0 0 50 50" fill="none" xmlns="http://www.w3.org/2000/svg">
<g id="file-pdf-regular 1">
<path id="Vector" d="M6.25 45.3125H9.375V50H6.25C2.80273 50 0 47.1973 0 43.75V6.25C0 2.80273 2.80273 0 6.25 0H22.4121C24.0723 0 25.6641 0.654297 26.8359 1.82617L35.6738 10.6641C36.8457 11.8359 37.5 13.4277 37.5 15.0879V28.125H32.8125V15.625H25C23.2715 15.625 21.875 14.2285 21.875 12.5V4.6875H6.25C5.39062 4.6875 4.6875 5.39062 4.6875 6.25V43.75C4.6875 44.6094 5.39062 45.3125 6.25 45.3125ZM17.1875 34.375H20.3125C23.3301 34.375 25.7812 36.8262 25.7812 39.8438C25.7812 42.8613 23.3301 45.3125 20.3125 45.3125H18.75V48.4375C18.75 49.2969 18.0469 50 17.1875 50C16.3281 50 15.625 49.2969 15.625 48.4375V43.75V35.9375C15.625 35.0781 16.3281 34.375 17.1875 34.375ZM20.3125 42.1875C21.6113 42.1875 22.6562 41.1426 22.6562 39.8438C22.6562 38.5449 21.6113 37.5 20.3125 37.5H18.75V42.1875H20.3125ZM29.6875 34.375H32.8125C35.4004 34.375 37.5 36.4746 37.5 39.0625V45.3125C37.5 47.9004 35.4004 50 32.8125 50H29.6875C28.8281 50 28.125 49.2969 28.125 48.4375V35.9375C28.125 35.0781 28.8281 34.375 29.6875 34.375ZM32.8125 46.875C33.6719 46.875 34.375 46.1719 34.375 45.3125V39.0625C34.375 38.2031 33.6719 37.5 32.8125 37.5H31.25V46.875H32.8125ZM40.625 35.9375C40.625 35.0781 41.3281 34.375 42.1875 34.375H46.875C47.7344 34.375 48.4375 35.0781 48.4375 35.9375C48.4375 36.7969 47.7344 37.5 46.875 37.5H43.75V40.625H46.875C47.7344 40.625 48.4375 41.3281 48.4375 42.1875C48.4375 43.0469 47.7344 43.75 46.875 43.75H43.75V48.4375C43.75 49.2969 43.0469 50 42.1875 50C41.3281 50 40.625 49.2969 40.625 48.4375V42.1875V35.9375Z" fill="#1A1A1A"/>
</g>
</svg>
