<svg width="20" height="16" viewBox="0 0 20 16" fill="none" xmlns="http://www.w3.org/2000/svg">
<path id="Vector" d="M9.73461 4.35978L3.33288 9.63235V15.323C3.33288 15.4703 3.39141 15.6116 3.4956 15.7158C3.59978 15.82 3.74109 15.8785 3.88843 15.8785L7.7794 15.8685C7.92626 15.8677 8.06686 15.8089 8.17045 15.7048C8.27403 15.6007 8.33218 15.4598 8.33218 15.3129V11.9896C8.33218 11.8423 8.39071 11.701 8.4949 11.5968C8.59909 11.4926 8.74039 11.4341 8.88774 11.4341H11.11C11.2573 11.4341 11.3986 11.4926 11.5028 11.5968C11.607 11.701 11.6655 11.8423 11.6655 11.9896V15.3105C11.6653 15.3836 11.6795 15.456 11.7073 15.5236C11.7351 15.5912 11.776 15.6527 11.8276 15.7044C11.8792 15.7562 11.9406 15.7973 12.0081 15.8253C12.0756 15.8533 12.148 15.8678 12.2211 15.8678L16.1107 15.8785C16.258 15.8785 16.3993 15.82 16.5035 15.7158C16.6077 15.6116 16.6662 15.4703 16.6662 15.323V9.62853L10.2659 4.35978C10.1906 4.29912 10.0969 4.26605 10.0002 4.26605C9.90359 4.26605 9.80986 4.29912 9.73461 4.35978ZM19.8468 7.94346L16.944 5.55075V0.741374C16.944 0.630867 16.9001 0.524886 16.8219 0.446746C16.7438 0.368606 16.6378 0.324707 16.5273 0.324707H14.5829C14.4724 0.324707 14.3664 0.368606 14.2882 0.446746C14.2101 0.524886 14.1662 0.630867 14.1662 0.741374V3.26255L11.0575 0.704915C10.7592 0.459422 10.3849 0.325198 9.9985 0.325198C9.61215 0.325198 9.2378 0.459422 8.93947 0.704915L0.150238 7.94346C0.108046 7.97833 0.0731394 8.02117 0.0475116 8.06954C0.0218838 8.11791 0.00603759 8.17085 0.000878352 8.22535C-0.00428089 8.27984 0.00134797 8.33482 0.0174433 8.38714C0.0335386 8.43946 0.059785 8.48809 0.0946827 8.53026L0.980099 9.60665C1.0149 9.64897 1.05771 9.68401 1.10607 9.70976C1.15443 9.73551 1.2074 9.75148 1.26194 9.75673C1.31647 9.76199 1.37151 9.75644 1.4239 9.7404C1.4763 9.72436 1.52501 9.69814 1.56725 9.66325L9.73461 2.93617C9.80986 2.87551 9.90359 2.84244 10.0002 2.84244C10.0969 2.84244 10.1906 2.87551 10.2659 2.93617L18.4336 9.66325C18.4757 9.69815 18.5244 9.72439 18.5767 9.74049C18.629 9.75658 18.684 9.76221 18.7385 9.75705C18.793 9.75189 18.8459 9.73605 18.8943 9.71042C18.9427 9.68479 18.9855 9.64988 19.0204 9.60769L19.9058 8.5313C19.9407 8.48889 19.9668 8.44 19.9827 8.38746C19.9986 8.33491 20.004 8.27974 19.9985 8.22511C19.993 8.17048 19.9768 8.11748 19.9507 8.06914C19.9247 8.02081 19.8894 7.97809 19.8468 7.94346Z" fill="white"/>
</svg>
