<svg width="21" height="18" viewBox="0 0 21 18" fill="none" xmlns="http://www.w3.org/2000/svg">
<g id="eye-regular 1" clip-path="url(#clip0_969_3029)">
<path id="Vector" d="M10.4005 2.77775C8.13661 2.77775 6.2755 3.80553 4.84842 5.12844C3.51161 6.3715 2.588 7.84719 2.11578 8.88886C2.588 9.93053 3.51161 11.4062 4.84494 12.6493C6.2755 13.9722 8.13661 15 10.4005 15C12.6644 15 14.5255 13.9722 15.9526 12.6493C17.2894 11.4062 18.213 9.93053 18.6852 8.88886C18.213 7.84719 17.2894 6.3715 15.9561 5.12844C14.5255 3.80553 12.6644 2.77775 10.4005 2.77775ZM3.713 3.90969C5.34842 2.38886 7.59494 1.11108 10.4005 1.11108C13.2061 1.11108 15.4526 2.38886 17.088 3.90969C18.713 5.42011 19.7998 7.22219 20.3172 8.46178C20.4317 8.73608 20.4317 9.04164 20.3172 9.31594C19.7998 10.5555 18.713 12.3611 17.088 13.868C15.4526 15.3889 13.2061 16.6666 10.4005 16.6666C7.59494 16.6666 5.34842 15.3889 3.713 13.868C2.088 12.3611 1.00119 10.5555 0.487305 9.31594C0.372721 9.04164 0.372721 8.73608 0.487305 8.46178C1.00119 7.22219 2.088 5.41664 3.713 3.90969ZM10.4005 11.6666C11.9352 11.6666 13.1783 10.4236 13.1783 8.88886C13.1783 7.35414 11.9352 6.11108 10.4005 6.11108C10.3762 6.11108 10.3554 6.11108 10.3311 6.11108C10.3762 6.28817 10.4005 6.47567 10.4005 6.66664C10.4005 7.89233 9.40397 8.88886 8.17828 8.88886C7.98731 8.88886 7.79981 8.86455 7.62272 8.81942C7.62272 8.84372 7.62272 8.86455 7.62272 8.88886C7.62272 10.4236 8.86578 11.6666 10.4005 11.6666ZM10.4005 4.44442C11.5792 4.44442 12.7097 4.91267 13.5432 5.74616C14.3767 6.57966 14.8449 7.71012 14.8449 8.88886C14.8449 10.0676 14.3767 11.1981 13.5432 12.0316C12.7097 12.8651 11.5792 13.3333 10.4005 13.3333C9.22176 13.3333 8.0913 12.8651 7.2578 12.0316C6.42431 11.1981 5.95606 10.0676 5.95606 8.88886C5.95606 7.71012 6.42431 6.57966 7.2578 5.74616C8.0913 4.91267 9.22176 4.44442 10.4005 4.44442Z" fill="white"/>
</g>
<defs>
<clipPath id="clip0_969_3029">
<rect width="20" height="17.7778" fill="white" transform="translate(0.400391)"/>
</clipPath>
</defs>
</svg>
