<svg width="31" height="34" viewBox="0 0 31 34" fill="none" xmlns="http://www.w3.org/2000/svg">
<g id="ic:outline-lock">
<path id="Vector" d="M22.833 11.3376H21.583V8.61125C21.583 4.84891 18.783 1.79541 15.333 1.79541C11.883 1.79541 9.08301 4.84891 9.08301 8.61125V11.3376H7.83301C6.45801 11.3376 5.33301 12.5644 5.33301 14.0639V27.6956C5.33301 29.1951 6.45801 30.422 7.83301 30.422H22.833C24.208 30.422 25.333 29.1951 25.333 27.6956V14.0639C25.333 12.5644 24.208 11.3376 22.833 11.3376ZM11.583 8.61125C11.583 6.34839 13.258 4.52175 15.333 4.52175C17.408 4.52175 19.083 6.34839 19.083 8.61125V11.3376H11.583V8.61125ZM22.833 27.6956H7.83301V14.0639H22.833V27.6956ZM15.333 23.6061C16.708 23.6061 17.833 22.3793 17.833 20.8798C17.833 19.3803 16.708 18.1534 15.333 18.1534C13.958 18.1534 12.833 19.3803 12.833 20.8798C12.833 22.3793 13.958 23.6061 15.333 23.6061Z" fill="#06CC02"/>
</g>
</svg>
