<svg width="35" height="34" viewBox="0 0 35 34" fill="none" xmlns="http://www.w3.org/2000/svg">
<g id="phabricator">
<path id="Vector" d="M22.4802 17.4052L22.4735 16.5419C22.4735 16.5419 23.9146 15.227 23.8747 15.1341L23.2438 13.8059C23.204 13.713 21.2849 13.7727 21.2849 13.7727L20.6606 13.1552C20.6606 13.1552 20.6739 11.2626 20.581 11.2227L19.2462 10.6118C19.1532 10.572 17.8716 12.0063 17.8716 12.0063L17.0017 11.9931C17.0017 11.9931 15.6403 10.572 15.5474 10.6118L14.2192 11.163C14.1263 11.1962 14.2325 13.0821 14.2325 13.0821L13.6282 13.6864C13.6282 13.6864 11.6892 13.6267 11.656 13.713L11.1181 15.0278C11.0782 15.1208 12.5126 16.4224 12.5126 16.4224L12.5192 17.279C12.5192 17.279 11.0782 18.5938 11.1181 18.6868L11.7489 20.0149C11.7888 20.1079 13.7079 20.0481 13.7079 20.0481L14.3321 20.6657C14.3321 20.6657 14.3188 22.7774 14.4118 22.8106L15.7466 23.3618C15.8396 23.4016 17.1212 21.8013 17.1212 21.8013L17.9911 21.8145C17.9911 21.8145 19.3524 23.395 19.4388 23.3618L20.7669 22.8638C20.8599 22.8239 20.7536 20.7321 20.7536 20.7321L21.3579 20.1278C21.3579 20.1278 23.297 20.1876 23.3302 20.0946L23.8681 18.7798C23.9146 18.7067 22.4802 17.4052 22.4802 17.4052ZM19.4985 16.8274C19.545 17.963 18.6485 18.9259 17.4997 18.979C16.3509 19.0321 15.3681 18.1489 15.3216 17.0134C15.2751 15.8778 16.1716 14.9149 17.3204 14.8684C18.4692 14.8153 19.4521 15.6985 19.4985 16.8274ZM32.8595 14.3106L26.4181 7.86923L26.4114 7.87587C21.4243 3.00829 13.4356 3.04149 8.49502 7.98212C5.11494 11.3688 6.64893 9.83485 2.13994 14.3106C0.659082 15.7915 0.659082 18.2087 2.13994 19.6895C6.78174 24.2981 5.22119 22.7442 8.60791 26.1309L8.61455 26.1243C13.6017 30.9919 21.5903 30.9653 26.531 26.0181C29.9177 22.638 28.3837 24.1653 32.8595 19.6895C34.3403 18.2087 34.3403 15.7915 32.8595 14.3106ZM10.3544 24.1587C6.39658 20.2075 6.39658 13.7993 10.3544 9.84814C14.3056 5.89032 20.7138 5.89696 24.6716 9.84814C28.6228 13.7993 28.6294 20.2075 24.6716 24.1653C20.7138 28.1165 14.3122 28.1099 10.3544 24.1587Z" fill="#06CC02"/>
</g>
</svg>
