<svg width="21" height="21" viewBox="0 0 21 21" fill="none" xmlns="http://www.w3.org/2000/svg">
<g id="tools" clip-path="url(#clip0_965_1825)">
<path id="Vector" d="M16.1581 12.465L12.4989 8.80599C11.7771 8.08418 10.699 7.94357 9.83034 8.37165L6.49928 5.04073V3.10029L2.4995 0.100586L0.499609 2.10039L3.49944 6.1H5.43996L8.77102 9.43093C8.34605 10.2996 8.48354 11.3776 9.20537 12.0994L12.8645 15.7584C13.3208 16.2146 14.0582 16.2146 14.5113 15.7584L16.1581 14.1117C16.6112 13.6555 16.6112 12.9181 16.1581 12.465ZM10.8647 7.13115C11.749 7.13115 12.5802 7.47487 13.2052 8.0998L13.8114 8.706C14.3051 8.49039 14.7738 8.19042 15.18 7.78421C16.3394 6.62495 16.7331 4.99386 16.3644 3.51275C16.2956 3.23153 15.9425 3.13466 15.7363 3.34089L13.4114 5.66567L11.2896 5.31258L10.9365 3.19091L13.2614 0.866136C13.4676 0.659906 13.3676 0.306816 13.0833 0.234948C11.6021 -0.130641 9.97096 0.26307 8.81477 1.41921C7.9242 2.30975 7.50547 3.48463 7.52734 4.65639L10.0928 7.22177C10.3459 7.1624 10.6084 7.13115 10.8647 7.13115ZM7.61796 9.6934L5.84619 7.9217L1.08395 12.6869C0.302745 13.468 0.302745 14.7335 1.08395 15.5147C1.86516 16.2959 3.13071 16.2959 3.91192 15.5147L7.7742 11.6526C7.53672 11.0308 7.46485 10.3527 7.61796 9.6934ZM2.4995 14.8491C2.08702 14.8491 1.74954 14.5117 1.74954 14.0992C1.74954 13.6836 2.0839 13.3493 2.4995 13.3493C2.9151 13.3493 3.24946 13.6836 3.24946 14.0992C3.24946 14.5117 2.9151 14.8491 2.4995 14.8491Z" fill="white"/>
</g>
<defs>
<clipPath id="clip0_965_1825">
<rect width="20" height="20" fill="white" transform="translate(0.5 0.100586)"/>
</clipPath>
</defs>
</svg>
